<svg width="30" height="30" viewBox="0 0 30 30" fill="none" xmlns="http://www.w3.org/2000/svg">
<g clip-path="url(#clip0)">
<path d="M15 0C7.005 0 1.84308 8.47242 5.43035 15.5572L10.9364 27.4073C12.5438 30.8667 17.4587 30.8617 19.0637 27.4073L24.5699 15.5571C28.1557 8.47513 22.9987 0 15 0V0ZM22.8816 14.7179C22.8705 14.7396 23.1309 14.1801 17.3541 26.6128C16.4216 28.6195 13.5795 28.6214 12.6461 26.6128C6.89112 14.227 7.13014 14.7407 7.11871 14.7181C4.17796 8.93289 8.3556 1.88525 15 1.88525C21.6407 1.88525 25.8242 8.9283 22.8816 14.7179Z" fill="white"/>
<path d="M15 5.483C12.112 5.483 9.76239 7.83261 9.76239 10.7206C9.76239 13.6087 12.112 15.9583 15 15.9583C17.888 15.9583 20.2376 13.6087 20.2376 10.7206C20.2376 7.83261 17.8881 5.483 15 5.483ZM15 14.0731C13.1515 14.0731 11.6476 12.5692 11.6476 10.7207C11.6476 8.87215 13.1515 7.36831 15 7.36831C16.8486 7.36831 18.3524 8.87215 18.3524 10.7207C18.3524 12.5692 16.8486 14.0731 15 14.0731Z" fill="white"/>
</g>
<defs>
<clipPath id="clip0">
<rect width="30" height="30" fill="white"/>
</clipPath>
</defs>
</svg>
