<svg width="30" height="30" viewBox="0 0 30 30" fill="none" xmlns="http://www.w3.org/2000/svg">
<path d="M5.55141 17.3545C5.03479 17.661 4.6875 18.2242 4.6875 18.8672C4.6875 19.8364 5.47605 20.625 6.44531 20.625C7.20914 20.625 7.86047 20.1351 8.10234 19.4531H12.6562C13.6255 19.4531 14.4141 20.2417 14.4141 21.2109C14.4141 22.1802 13.6255 22.9688 12.6562 22.9688H5.625C4.00957 22.9688 2.69531 24.283 2.69531 25.8984C2.69531 27.5139 4.00957 28.8281 5.625 28.8281H11.4844C11.808 28.8281 12.0703 28.5658 12.0703 28.2422C12.0703 27.9186 11.808 27.6562 11.4844 27.6562H5.625C4.65574 27.6562 3.86719 26.8677 3.86719 25.8984C3.86719 24.9292 4.65574 24.1406 5.625 24.1406H12.6562C14.2717 24.1406 15.5859 22.8264 15.5859 21.2109C15.5859 19.5955 14.2717 18.2812 12.6562 18.2812H8.10234C7.96377 17.8905 7.69084 17.5631 7.33922 17.3545L11.8145 10.0118C12.5185 8.95359 12.8906 7.72055 12.8906 6.44531C12.8906 2.89137 9.99926 0 6.44531 0C2.89137 0 0 2.89137 0 6.44531C0 7.72055 0.372129 8.95359 1.07613 10.0118L5.55141 17.3545ZM6.44531 19.4531C6.12223 19.4531 5.85938 19.1903 5.85938 18.8672C5.85938 18.5441 6.12223 18.2812 6.44531 18.2812C6.7684 18.2812 7.03125 18.5441 7.03125 18.8672C7.03125 19.1903 6.7684 19.4531 6.44531 19.4531ZM6.44531 1.17188C9.35309 1.17188 11.7188 3.53754 11.7188 6.44531C11.7188 7.49227 11.4125 8.504 10.8331 9.37119C10.8286 9.37793 10.8242 9.38478 10.82 9.39176L6.44531 16.5694C6.44531 16.5694 2.06203 9.37793 2.05752 9.37119C1.47814 8.504 1.17188 7.49227 1.17188 6.44531C1.17188 3.53754 3.53754 1.17188 6.44531 1.17188Z" fill="white"/>
<path d="M6.44531 9.375C8.06074 9.375 9.375 8.06074 9.375 6.44531C9.375 4.82988 8.06074 3.51562 6.44531 3.51562C4.82988 3.51562 3.51562 4.82988 3.51562 6.44531C3.51562 8.06074 4.82988 9.375 6.44531 9.375ZM6.44531 4.6875C7.41457 4.6875 8.20312 5.47605 8.20312 6.44531C8.20312 7.41457 7.41457 8.20312 6.44531 8.20312C5.47605 8.20312 4.6875 7.41457 4.6875 6.44531C4.6875 5.47605 5.47605 4.6875 6.44531 4.6875Z" fill="white"/>
<path d="M23.5547 9.72656C20.0007 9.72656 17.1094 12.6179 17.1094 16.1719C17.1094 17.4492 17.4827 18.6841 18.1889 19.7434L22.6475 26.7371C22.3022 26.946 22.0345 27.2704 21.8977 27.6562H16.7578C16.4342 27.6562 16.1719 27.9186 16.1719 28.2422C16.1719 28.5658 16.4342 28.8281 16.7578 28.8281H21.8977C22.1395 29.5101 22.7908 30 23.5547 30C24.5239 30 25.3125 29.2114 25.3125 28.2422C25.3125 27.6046 24.9713 27.0454 24.462 26.7371L28.9205 19.7434C29.6267 18.6841 30 17.4492 30 16.1719C30 12.6179 27.1086 9.72656 23.5547 9.72656ZM23.5547 28.8281C23.2316 28.8281 22.9688 28.5653 22.9688 28.2422C22.9688 27.9191 23.2316 27.6562 23.5547 27.6562C23.8778 27.6562 24.1406 27.9191 24.1406 28.2422C24.1406 28.5653 23.8778 28.8281 23.5547 28.8281ZM27.9425 19.0978C27.9402 19.1013 23.5547 25.9803 23.5547 25.9803C23.5547 25.9803 19.1692 19.1012 19.1669 19.0978C18.5875 18.2306 18.2812 17.2188 18.2812 16.1719C18.2812 13.2641 20.6469 10.8984 23.5547 10.8984C26.4625 10.8984 28.8281 13.2641 28.8281 16.1719C28.8281 17.2188 28.5219 18.2306 27.9425 19.0978Z" fill="white"/>
<path d="M23.5547 13.2422C21.9393 13.2422 20.625 14.5564 20.625 16.1719C20.625 17.7873 21.9393 19.1016 23.5547 19.1016C25.1701 19.1016 26.4844 17.7873 26.4844 16.1719C26.4844 14.5564 25.1701 13.2422 23.5547 13.2422ZM23.5547 17.9297C22.5854 17.9297 21.7969 17.1411 21.7969 16.1719C21.7969 15.2026 22.5854 14.4141 23.5547 14.4141C24.5239 14.4141 25.3125 15.2026 25.3125 16.1719C25.3125 17.1411 24.5239 17.9297 23.5547 17.9297Z" fill="white"/>
<path d="M14.1211 28.8281C14.4447 28.8281 14.707 28.5658 14.707 28.2422C14.707 27.9186 14.4447 27.6562 14.1211 27.6562C13.7975 27.6562 13.5352 27.9186 13.5352 28.2422C13.5352 28.5658 13.7975 28.8281 14.1211 28.8281Z" fill="white"/>
</svg>
